<svg width="487" height="233" viewBox="0 0 487 233" fill="none" xmlns="http://www.w3.org/2000/svg">
<path fill-rule="evenodd" clip-rule="evenodd" d="M16.7815 0.859565C16.7815 1.49365 14.245 1.96918 11.0746 1.81066C7.4286 1.65213 4.4168 2.44474 2.67307 4.18848C-0.497367 7.35891 -0.814448 16.0775 2.03894 21.1502C3.14859 23.0525 3.4656 24.9548 2.99003 25.5889C2.51447 26.0645 2.83151 26.54 3.78264 26.54C4.57525 26.54 5.84342 25.589 6.16046 24.4793C6.79455 23.3697 7.11155 23.5282 7.11155 25.2719C7.27008 26.6986 6.47747 28.1253 5.52634 28.4424C4.41669 28.7594 4.4168 30.3446 5.8435 33.3565C6.95315 35.7343 8.69689 37.4779 9.80654 37.0024C10.9162 36.5268 12.1842 37.3194 12.6598 38.5876C13.1354 40.0143 12.8185 40.4899 12.0259 40.0143C9.80658 38.7462 9.9651 39.6972 12.8185 44.9285C14.0867 47.4648 15.1963 48.5746 15.1963 47.465C15.1963 46.5138 16.623 45.5626 18.5252 45.5626C20.7445 45.5626 21.3785 46.1968 20.4274 47.465C19.7933 48.5746 19.0007 51.2694 18.8422 53.4887C18.3666 56.9761 18.6838 56.8177 20.7446 52.2206C22.0127 49.5257 23.2808 47.1478 23.5978 47.1478C24.7075 47.1478 24.2319 52.696 22.9637 53.4887C20.1103 55.3909 23.7564 63.4756 28.8291 66.4875C31.841 68.2313 34.2189 69.975 34.2189 70.4506C34.2189 70.7676 33.5848 70.609 32.6337 70.1334C31.8411 69.6579 31.0485 70.1335 31.0485 71.2432C31.0485 72.6699 32.7922 73.4624 35.8041 73.3039C39.4501 73.3039 40.5598 72.5112 40.5598 70.2919C40.5598 65.8533 42.3035 68.2312 43.0961 73.7795C43.5716 76.4744 43.0961 79.0106 42.145 79.6447C41.3524 80.1203 40.5598 79.8033 40.5598 78.6936C40.5598 77.4255 39.9257 77.4254 38.1819 78.8521C36.1212 80.5958 35.8041 80.4374 36.7552 77.901C37.3893 75.6817 37.2307 75.3647 36.1211 77.1084C34.8529 78.8521 34.5359 78.8521 33.7433 77.1084C33.2677 75.6817 32.7922 75.5233 32.7922 76.7914C32.6336 77.7426 34.2188 79.8032 36.2796 81.2299C38.1818 82.4981 39.6086 84.242 39.2915 84.7175C38.9745 85.3516 39.45 86.1442 40.4011 86.4612C41.3522 86.7783 42.6204 85.51 43.413 83.7662C44.8397 79.6447 47.6931 81.547 49.1198 87.5708C49.9124 91.3753 49.754 91.6925 48.4858 89.4732C46.5836 86.4613 41.5108 85.6687 42.4619 88.6806C42.9375 89.7902 44.8398 91.6925 47.0591 92.6436C49.1199 93.7533 49.9125 94.7043 48.8028 94.7043C47.2176 94.7043 47.3762 95.3383 49.2785 97.2406C52.1318 100.252 53.2414 99.6184 53.7169 94.8628C53.8755 92.6434 54.9852 91.5338 57.2045 91.5338C59.7409 91.5338 59.8994 91.8509 57.9971 93.1191C56.0949 94.3872 55.9362 94.7043 57.8385 94.7043C59.4237 94.7043 59.1068 95.814 56.5704 98.3503C53.4 101.996 53.2414 102.313 55.9363 104.374C57.68 105.801 58.1556 105.959 57.363 104.691C55.7778 101.996 64.3379 102.63 67.1913 105.325C68.3009 106.435 70.6788 107.386 72.4226 107.386C74.0078 107.386 75.4345 108.02 75.4345 108.971C75.4345 109.922 74.0077 109.922 71.3128 108.971C65.7645 106.752 65.6061 106.911 66.2402 111.666C66.5572 114.361 67.667 116.105 69.0937 116.105C70.3618 116.105 71.6299 117.69 71.9469 119.751C72.4225 122.287 73.2152 123.238 74.8004 122.604C76.0686 122.128 76.8612 122.287 76.3856 122.921C75.91 123.714 77.0197 125.458 78.7634 127.043C81.9339 129.738 82.0924 129.738 80.9828 126.567C79.5561 121.97 81.9337 122.446 85.5797 127.518C87.3235 129.738 87.6407 131.164 86.531 130.372C85.1043 129.579 84.7871 129.738 85.5797 130.847C86.2138 131.957 87.9576 132.749 89.3843 132.749C91.7621 132.749 91.7622 133.066 89.7015 134.493C87.9577 135.761 88.2748 135.92 91.2867 134.969C93.506 134.335 97.3105 133.859 100.005 134.018C102.542 134.018 105.236 133.225 105.871 132.274C106.822 130.847 107.139 130.847 107.139 132.274C107.139 133.225 106.029 135.127 104.761 136.396C103.017 138.298 102.859 139.09 104.444 139.724C105.395 140.2 104.92 140.358 103.176 139.883C101.432 139.566 99.0542 139.724 97.786 140.517C96.0423 141.627 96.3592 142.261 99.0541 143.687C100.798 144.797 102.383 145.114 102.383 144.48C102.383 143.846 103.651 144.956 105.395 146.699C106.98 148.602 108.724 149.711 109.358 149.077C109.834 148.602 110.309 149.077 110.309 150.187C110.309 151.614 111.419 151.138 113.638 148.919C116.967 145.273 120.296 145.59 119.503 149.394C119.186 150.662 119.503 151.455 119.979 151.297C120.455 151.138 122.04 152.248 123.625 153.674C125.052 155.101 127.271 156.052 128.381 155.577C129.649 155.101 131.075 155.418 131.551 156.211C132.027 157.003 131.234 157.637 129.649 157.479C128.222 157.479 127.112 158.113 127.271 159.223C127.588 160.491 126.637 160.808 125.052 160.174C123.308 159.381 122.832 159.698 123.625 161.125C124.418 162.235 126.32 162.71 128.064 162.393C129.966 161.918 130.917 162.235 130.441 163.344C129.807 165.564 137.575 172.38 141.062 172.38C142.489 172.38 143.599 173.172 143.599 174.124C143.599 174.916 144.391 175.233 145.184 174.758C146.135 174.282 146.769 174.441 146.769 175.392C146.769 176.184 148.354 177.453 150.415 178.087C152.317 178.721 154.22 179.513 154.695 180.147C156.281 182.05 167.536 186.647 170.547 186.647C172.133 186.647 174.51 187.598 175.62 188.708C178.315 191.244 186.558 194.89 187.509 193.939C187.985 193.622 189.729 194.732 191.472 196.475L194.801 199.804L197.655 196C199.715 193.305 199.874 191.878 198.606 191.085C197.338 190.293 197.655 189.817 199.557 189.817C200.983 189.817 202.252 190.451 202.252 191.402C202.252 192.195 203.044 192.988 203.995 192.988C204.788 192.988 205.105 192.195 204.63 191.402C204.154 190.451 204.471 189.817 205.264 189.817C206.215 189.817 207.007 190.451 207.007 191.402C207.007 192.195 208.117 192.988 209.544 192.988C211.763 192.988 211.763 193.305 210.019 195.524C208.434 197.585 207.8 197.585 207.007 195.841C205.581 192.354 200.191 193.463 199.715 197.426C199.24 199.646 199.874 200.914 201.301 200.914C202.569 200.914 203.837 201.548 204.154 202.182C204.471 202.975 206.532 204.084 209.068 204.718C213.348 205.669 214.299 204.401 213.507 198.06C213.19 196.475 213.824 196.317 216.36 197.585C220.323 199.804 221.75 199.804 220.482 197.743C220.006 196.792 220.165 196.158 220.957 196.158C221.908 196.158 223.018 197.268 223.494 198.694C223.969 199.963 225.237 200.597 226.189 199.963C227.457 199.17 227.615 199.487 226.823 201.072C226.03 202.34 226.823 202.024 228.725 200.438C230.838 198.642 231.79 199.487 231.578 202.975C231.261 205.987 231.578 208.998 232.054 209.791C233.639 211.852 237.602 212.486 236.334 210.425C235.858 209.632 236.492 208.84 237.76 208.84C239.187 208.84 239.821 207.889 239.346 206.62C238.87 205.352 239.346 203.926 240.455 203.133C241.882 202.34 242.041 202.816 241.407 204.56C240.772 206.145 241.248 207.255 242.199 207.255C243.309 207.255 242.675 208.364 240.931 209.791C239.029 211.376 239.504 211.958 242.358 211.535C246.321 210.901 248.54 213.754 245.528 215.656C244.735 215.973 245.053 215.973 246.162 215.815C247.113 215.498 248.381 215.815 248.699 216.449C249.016 217.083 249.016 216.607 248.699 215.498C248.54 214.23 248.223 211.852 248.223 210.267C248.223 208.206 247.589 207.413 246.321 208.206C245.211 208.84 245.052 208.681 245.687 207.572C246.321 206.462 246.004 205.669 245.053 205.669C244.101 205.669 243.784 204.877 244.26 204.084C244.894 203.133 246.162 203.45 247.589 204.877C249.016 206.145 250.759 206.938 251.552 206.462C252.345 205.828 252.979 206.145 252.979 207.096C252.979 207.889 252.027 208.998 251.076 209.315C249.491 209.95 249.491 210.267 251.076 210.267C252.027 210.425 252.979 211.218 252.979 212.169C252.979 212.961 252.186 213.278 251.076 212.644C249.967 211.852 249.808 212.169 250.442 213.437C251.235 214.547 252.662 215.022 253.93 214.547C255.356 214.071 256.149 214.864 256.149 216.766C256.149 218.51 256.942 219.936 257.893 219.936C258.844 219.936 259.319 218.985 258.844 217.876C258.368 216.607 258.685 214.705 259.637 213.437C260.905 211.693 261.063 211.852 260.271 213.913C259.637 215.973 260.271 216.766 262.173 216.766C264.234 216.766 264.392 217.083 262.807 218.193C261.063 219.302 261.063 219.619 262.965 220.412C264.709 221.046 265.819 219.936 266.453 216.607C267.246 213.437 268.355 212.01 270.099 212.327C271.684 212.486 274.537 211.693 276.598 210.584C278.818 209.315 279.927 209.157 279.293 210.267C278.659 211.218 278.818 212.01 279.769 212.01C280.72 212.01 280.878 213.279 280.403 214.705C279.61 216.607 280.086 217.083 281.83 216.449C283.098 215.815 285.159 216.132 286.427 217.083C288.17 218.351 288.012 218.51 285.951 217.717C284.366 217.241 283.098 217.559 283.098 218.351C283.098 221.204 280.403 219.936 278.659 216.29C277.391 213.596 276.915 213.437 276.915 215.498C276.757 217.083 275.964 218.351 275.013 218.351C274.22 218.351 273.904 217.559 274.379 216.766C274.855 215.815 274.538 215.181 273.745 215.181C272.794 215.181 272.001 216.29 272.001 217.717C272.001 218.985 271.209 219.619 270.416 219.144C269.465 218.51 269.306 217.242 269.782 216.29C270.575 214.864 270.416 214.864 268.989 216.132C265.66 219.144 268.831 223.424 273.745 222.79C276.123 222.314 277.866 222.631 277.391 223.424C276.915 224.058 277.232 224.692 278.183 224.692C278.976 224.692 280.244 223.899 280.72 223.107C281.196 222.156 282.781 221.522 284.049 221.522C285.317 221.522 285.951 222.314 285.476 223.107C284.842 224.058 283.573 224.216 282.622 223.741C281.195 222.948 281.195 223.107 282.464 224.533C283.415 225.643 289.439 227.07 295.938 227.704C305.291 228.814 308.144 228.497 310.363 226.753C312.266 225.009 313.217 225.009 314.168 226.436C314.802 227.704 314.644 228.021 313.534 227.228C312.424 226.594 311.632 226.911 311.632 227.704C311.632 228.655 312.107 229.448 312.9 229.606C320.192 230.399 324.472 229.923 324.947 228.338C325.74 226.436 332.24 227.387 332.24 229.289C332.24 231.35 339.056 230.874 341.275 228.497C344.287 225.485 346.031 226.911 343.336 230.24C341.751 232.142 341.751 232.618 343.811 232.618C345.238 232.618 346.823 231.825 347.299 231.033C347.933 230.082 349.201 229.923 350.152 230.557C351.421 231.191 351.262 230.716 349.994 229.131C348.726 227.387 348.567 226.277 349.518 225.643C350.628 224.85 350.628 223.265 349.677 220.729C348.884 218.51 348.567 216.766 349.043 216.766C351.104 216.766 356.018 220.253 356.018 221.68C356.018 222.631 355.384 222.948 354.591 222.473C353.798 221.997 352.689 222.631 352.213 224.058C351.421 225.96 352.055 226.277 354.908 225.326C357.127 224.692 357.391 225.379 355.701 227.387C352.213 231.191 352.055 232.777 355.225 231.667C356.493 231.033 357.286 230.082 356.81 229.448C355.859 227.862 364.895 226.119 368.224 227.387C370.602 228.338 370.602 228.496 367.748 229.606C365.687 230.399 367.114 230.716 371.711 230.716C377.101 230.557 378.052 230.082 376.308 228.813C374.723 227.704 374.406 225.96 375.04 223.899C375.674 222.156 375.833 219.936 375.357 219.144C374.882 218.193 375.04 218.034 375.833 218.668C376.467 219.302 378.052 218.668 379.162 217.083C381.064 214.705 381.223 214.705 380.589 218.193C380.113 220.412 379.003 222.631 378.052 223.265C376.784 224.058 377.101 224.851 379.162 225.96C384.393 228.655 396.599 228.972 394.856 226.277C394.221 225.326 395.014 225.168 396.441 225.802C398.026 226.277 399.77 225.802 400.562 224.533C401.513 222.948 401.989 222.948 401.989 224.217C401.989 225.643 403.891 226.119 407.537 225.802C413.086 225.485 415.463 223.107 410.391 223.107C407.854 222.948 407.854 222.79 410.549 221.363C412.927 219.936 413.085 219.302 411.342 218.193C409.756 217.241 410.074 216.766 412.61 216.766C414.512 216.766 416.89 215.498 417.682 213.913C418.634 212.486 419.426 212.01 419.426 213.12C419.426 214.071 418.634 215.498 417.682 216.132C416.731 216.607 416.256 218.51 416.731 220.095C417.207 221.68 416.731 223.265 415.622 223.741C414.671 224.058 415.78 224.533 418.158 224.533C420.536 224.692 423.389 223.582 424.816 222.314C426.401 220.729 427.511 220.412 428.145 221.68C428.938 222.79 430.364 222.156 432.267 220.095C435.437 216.607 436.23 214.388 433.693 215.973C432.901 216.449 432.108 216.132 432.108 215.339C432.108 214.388 432.742 213.595 433.535 213.595C434.327 213.595 435.278 212.169 435.754 210.425C436.23 208.681 437.815 207.255 439.242 207.255C440.827 207.255 441.302 208.047 440.668 209.157C439.875 210.425 440.351 210.584 442.253 209.95C443.839 209.315 444.631 209.474 443.997 210.425C443.522 211.376 441.619 212.01 439.875 212.01C436.229 212.01 435.754 215.973 439.4 217.4C443.046 218.827 443.68 218.668 442.729 216.132C442.095 214.388 442.57 214.071 444.314 214.705C446.058 215.339 446.534 215.022 445.741 213.913C445.107 212.803 445.424 212.01 446.216 212.01C447.167 212.01 447.96 213.437 447.96 215.339C447.96 217.083 447.326 218.034 446.375 217.559C445.582 217.083 444.79 217.4 444.79 218.193C444.79 221.046 447.802 220.095 449.545 216.766C450.972 214.071 452.557 213.596 459.057 214.071C466.507 214.705 466.666 214.547 467.458 209.95C468.092 205.669 467.934 205.511 466.032 208.047C464.763 209.632 463.337 210.584 462.861 209.95C462.227 209.315 462.544 207.889 463.495 206.779C464.605 205.511 464.922 204.243 464.605 203.767C464.129 203.292 465.715 202.499 468.251 202.024C470.787 201.548 473.958 200.121 475.067 199.012C476.336 197.902 479.506 196.158 482.042 195.365C489.651 192.671 487.908 185.062 479.665 185.062C477.445 185.062 474.909 184.586 474.275 183.794C473.641 183.159 471.104 182.684 468.568 182.684C466.19 182.684 464.446 183.159 464.922 183.794C465.239 184.586 464.447 185.062 463.02 185.062C461.593 185.062 460.8 184.428 461.276 183.794C461.751 183.001 461.118 182.367 459.849 182.367C458.581 182.367 457.472 183.159 457.472 184.11C457.472 185.062 456.679 184.903 455.569 183.794C453.191 181.416 450.497 181.257 451.923 183.476C452.399 184.269 452.24 185.062 451.289 185.062C450.497 185.062 449.228 184.269 448.753 183.476C448.119 182.367 447.009 182.208 445.899 183.159C444.79 184.111 440.827 184.428 437.022 184.11C432.901 183.635 429.096 184.269 427.669 185.379C425.609 186.964 425.45 186.964 426.401 185.379C427.035 184.269 426.718 183.476 425.133 183.476C423.865 183.476 422.28 184.269 421.804 185.062C421.17 186.013 420.06 186.33 419.268 185.854C418.475 185.22 417.207 185.379 416.256 185.854C415.463 186.33 409.757 186.964 403.574 187.281C397.233 187.598 391.368 188.708 389.783 189.976C388.039 191.402 387.563 191.561 388.356 190.134C388.99 189.183 388.673 188.232 387.881 188.232C386.929 188.232 386.137 188.866 386.137 189.817C386.137 190.61 385.027 190.768 383.442 190.293C381.698 189.659 381.223 189.817 382.015 191.085C382.649 192.195 382.332 192.988 381.381 192.988C380.43 192.988 379.32 192.037 378.845 190.927C377.894 188.391 362.041 189.183 361.09 191.72C360.773 192.512 359.664 192.354 358.554 191.561C356.176 189.5 330.02 186.488 323.045 187.439C320.033 187.756 318.29 187.439 318.765 186.647C319.399 185.696 318.765 185.062 317.655 185.062C309.888 184.745 296.731 182.842 288.646 180.782C283.415 179.513 275.964 177.77 272.001 176.977C268.038 176.026 263.441 174.758 261.697 173.965C259.954 173.172 254.881 172.063 250.284 171.587C245.528 170.953 241.724 169.685 241.248 168.258C240.772 166.99 239.029 166.039 237.443 166.039C235.858 166.039 233.797 165.246 233.005 164.454C232.054 163.503 229.517 162.551 227.457 162.234C225.396 162.076 220.482 160.332 216.519 158.43C212.556 156.528 207.8 154.942 205.739 154.942C203.678 154.942 202.41 154.308 202.886 153.516C204.154 151.613 191.155 145.59 184.973 145.114C182.437 144.956 180.376 144.004 180.534 143.053C180.693 142.261 178.791 141.627 176.413 141.785C173.242 141.944 172.133 141.468 172.608 140.041C173.242 138.615 171.34 137.347 167.218 136.078C163.414 134.969 161.353 133.542 161.987 132.432C162.621 131.323 162.463 131.164 161.353 131.798C158.817 133.384 147.245 127.043 144.233 122.446C142.648 120.068 140.111 118.483 137.733 118.483C135.197 118.483 134.246 117.849 135.039 116.58C135.673 115.471 135.514 115.312 134.404 115.946C132.027 117.373 125.686 113.093 127.429 111.349C128.064 110.556 127.746 110.557 126.795 111.032C125.844 111.508 123.625 110.556 121.723 108.971C119.82 107.227 117.918 105.801 117.443 105.801C116.967 105.801 115.223 104.533 113.48 102.948C111.736 101.521 109.041 99.1429 107.456 97.7162C105.871 96.2895 103.334 95.3383 101.908 95.6554C100.322 95.8139 99.5298 95.3384 100.005 94.7043C100.481 93.9117 98.2615 91.5338 94.9326 89.156C91.6036 86.9367 89.0673 84.559 89.2258 83.9249C89.3843 83.2908 87.3236 81.5471 84.4702 80.1204C81.6168 78.6937 80.0315 77.4254 80.8241 77.2669C83.0434 77.2669 78.1293 72.1942 74.1663 70.7675C72.1055 69.9749 70.9959 68.5482 71.4715 67.7556C71.947 66.8045 71.3129 65.6949 70.0447 65.2193C68.618 64.7437 67.5084 63.6341 67.5084 62.8415C67.5084 60.3051 61.8017 55.5494 57.2045 54.4397C53.083 53.3301 53.0829 53.1716 55.7778 51.1108C57.6801 49.737 57.6273 49.103 55.6193 49.2087C53.7171 49.3672 52.6073 48.7331 52.9243 47.465C53.5584 44.453 45.7909 35.5758 44.8398 38.1121C44.2057 39.5388 43.8887 39.5389 43.8887 37.9537C43.7302 36.844 43.0961 36.3683 42.145 36.8439C41.3524 37.3195 40.5598 36.6854 40.5598 35.2587C40.5598 33.832 39.9257 33.1979 38.9745 33.6735C38.1819 34.149 37.3893 33.8319 37.3893 33.0393C37.3893 32.0882 38.1819 31.2956 38.9745 31.2956C39.9257 31.2956 40.5598 30.6615 40.5598 29.7104C40.5598 28.9178 39.4501 28.6007 38.1819 29.0763C36.7552 29.7104 35.6454 28.6007 34.8528 25.9059C34.3773 23.6866 33.2676 21.7843 32.475 21.7843C31.6824 21.7843 31.0485 20.6747 31.0485 19.4065C31.0485 18.1383 30.4144 17.0287 29.4633 17.0287C28.6706 17.0287 27.878 16.0775 27.878 14.8093C27.878 12.4315 19.4764 9.73674 16.94 11.322C16.1474 11.956 14.8793 11.639 14.4037 10.6878C13.7696 9.7367 13.9281 9.10257 14.7207 9.26109C19.6348 10.0537 22.8053 8.78568 22.3298 6.24934C22.0127 4.82264 21.6957 3.07883 21.6957 2.60326C21.5371 1.01805 16.7815 -0.567129 16.7815 0.859565ZM8.06284 5.93218C8.5384 6.72479 8.37984 7.51739 7.42871 7.51739C6.63611 7.51739 5.36797 6.72479 4.89241 5.93218C4.41684 4.98105 4.57521 4.34696 5.52634 4.34696C6.31895 4.34696 7.58727 4.98105 8.06284 5.93218ZM6.79459 17.8213C6.79459 19.0895 6.16046 19.7236 5.36786 19.248C4.57525 18.7725 4.41684 17.6628 4.89241 16.8702C6.3191 14.8094 6.79459 15.1264 6.79459 17.8213ZM15.6718 17.8213C15.1962 19.248 14.4036 20.0406 14.0865 19.565C13.611 19.0894 13.7696 18.1383 14.4037 17.1872C15.8304 14.6508 16.7814 15.1264 15.6718 17.8213ZM21.0615 22.4185C21.0615 24.3207 19.1593 24.4792 15.1963 23.3696C14.7207 23.211 15.8304 22.5769 17.5741 21.7843C19.3179 20.9917 20.7445 20.3576 20.903 20.3576C20.903 20.1991 21.0615 21.1503 21.0615 22.4185ZM35.8041 38.2706C35.8041 38.7462 35.17 39.5388 34.2189 40.0143C33.4263 40.4899 32.6337 40.1728 32.6337 39.3802C32.6337 38.4291 33.4263 37.6365 34.2189 37.6365C35.17 37.6365 35.8041 37.9536 35.8041 38.2706ZM40.5598 41.5995C40.5598 42.8677 40.2427 43.9774 39.9256 43.9774C39.6086 43.9774 38.9745 42.8677 38.3404 41.5995C37.8649 40.3314 38.1819 39.2217 38.9745 39.2217C39.9257 39.2217 40.5598 40.3314 40.5598 41.5995ZM17.8911 43.3432C17.4155 43.8188 15.9888 43.9775 14.8791 43.5019C13.611 43.0263 14.0865 42.5506 15.8302 42.5506C17.574 42.3921 18.5252 42.8677 17.8911 43.3432ZM28.0365 46.6723C30.0973 49.2087 29.9387 49.3671 27.5609 47.3063C25.9757 46.1966 24.7076 44.9285 24.7076 44.6115C24.7076 43.3433 25.9757 44.136 28.0365 46.6723ZM37.3893 46.3552C37.3893 47.7819 38.3403 48.2575 40.2426 47.6234C42.3034 46.9893 42.4619 47.1478 41.1937 48.5745C39.1329 50.7938 34.2189 49.2086 34.2189 46.1967C34.2189 44.9285 35.0115 43.9774 35.8041 43.9774C36.7552 43.9774 37.3893 45.087 37.3893 46.3552ZM39.45 52.3791C42.1449 51.5865 42.6204 51.9034 41.0352 53.4887C38.8159 55.8665 34.2189 54.4399 34.3774 51.5865C34.3774 50.1598 34.6944 50.1597 35.17 51.2693C35.6456 52.379 37.5477 52.6961 39.45 52.3791ZM30.7313 59.3541C30.5728 62.683 30.2558 64.4268 29.7802 63.3171C29.4632 62.366 28.512 61.4147 27.7194 61.4147C26.7682 61.4147 26.6098 62.2075 27.2439 63.3171C27.878 64.4268 27.7194 64.5851 26.6098 63.951C24.7075 62.8414 25.8172 58.2443 28.0365 58.2443C28.8291 58.2443 29.4633 57.1347 29.4633 55.8665C29.4633 54.5983 29.7803 53.4887 30.2559 53.4887C30.5729 53.4887 30.8898 56.1836 30.7313 59.3541ZM34.8528 65.5363C35.3284 66.8044 35.17 67.4386 34.2189 66.963C33.2678 66.4874 32.6337 65.3778 32.6337 64.4267C32.6337 62.2074 33.7432 62.6829 34.8528 65.5363ZM58.7897 66.1704C58.3142 66.963 56.5704 67.7556 55.1437 67.7556C52.7659 67.7556 52.7659 67.4386 54.8267 66.1704C57.9971 64.1096 60.0579 64.1096 58.7897 66.1704ZM62.2771 70.4506C60.8505 71.7188 54.8267 72.1942 54.8267 71.0845C54.8267 70.2919 56.5704 69.658 58.7897 69.658C61.0091 69.658 62.5942 69.975 62.2771 70.4506ZM50.2295 79.3278C48.1688 81.3885 46.108 79.8032 47.6932 77.4254C48.1688 76.4743 49.4369 76.1572 50.388 76.6328C51.3392 77.2669 51.3392 78.2181 50.2295 79.3278ZM61.8015 78.6936C62.2771 79.4862 61.6431 80.4374 60.375 80.913C58.9483 81.5471 58.4726 81.0714 59.1067 79.4862C60.0578 76.9499 60.6919 76.7914 61.8015 78.6936ZM57.2045 88.2049C57.6801 89.1561 56.7289 89.6317 54.9852 89.4732C53.2415 89.4732 52.2903 88.6805 52.6074 88.0464C53.717 86.3027 56.0949 86.4612 57.2045 88.2049ZM64.338 96.448C64.338 97.2406 63.7038 97.8747 63.0698 97.8747C62.2771 97.8747 61.643 96.7651 61.643 95.4969C61.643 94.2287 62.2771 93.5946 63.0698 94.0701C63.7038 94.5457 64.338 95.4968 64.338 96.448ZM90.4941 95.0214C91.1282 95.497 90.811 96.448 90.0184 96.9236C89.2258 97.3992 87.6406 96.765 86.6895 95.6554C85.1043 93.9116 85.2627 93.4361 87.165 93.7532C88.5917 93.9117 90.0185 94.5459 90.4941 95.0214ZM85.7384 110.556C86.214 111.349 85.8969 112.142 85.1043 112.142C84.1532 112.142 83.3606 111.349 83.3606 110.556C83.3606 109.605 83.6775 108.971 83.9945 108.971C84.4701 108.971 85.2629 109.605 85.7384 110.556ZM79.3976 112.459C79.7146 112.776 79.2389 114.044 78.4463 115.312C77.1781 117.056 76.544 117.214 76.0685 115.788C75.5929 114.678 74.3248 114.202 73.2152 114.678C72.1055 115.154 70.2031 114.202 68.935 112.776C67.0327 110.398 67.3498 110.239 72.898 111.032C76.0685 111.508 79.0805 112.142 79.3976 112.459ZM83.9945 117.848C84.7871 120.068 84.6288 120.226 82.568 118.483C79.8731 116.263 79.5559 115.312 81.6167 115.312C82.4093 115.312 83.519 116.422 83.9945 117.848ZM91.2867 123.397C91.2867 124.031 90.177 124.348 88.9089 123.872C87.6407 123.238 86.531 122.287 86.531 121.494C86.531 120.86 87.6407 120.543 88.9089 121.019C90.177 121.653 91.2867 122.604 91.2867 123.397ZM130.917 123.872C130.917 124.348 130.283 125.14 129.332 125.616C128.539 126.092 127.747 125.774 127.747 124.982C127.747 124.031 128.539 123.238 129.332 123.238C130.283 123.238 130.917 123.555 130.917 123.872ZM98.5786 129.262C98.2616 130.689 96.8349 132.274 95.2497 132.591C93.1889 132.908 92.7133 132.432 93.3473 130.53C93.9814 129.103 93.5059 127.994 92.3962 127.994C91.1281 127.994 91.2865 127.518 92.7132 126.567C95.8836 124.506 99.0542 126.092 98.5786 129.262ZM111.736 138.615C110.626 140.2 109.517 141.627 109.358 141.944C109.199 142.102 108.724 140.993 108.248 139.09C107.614 136.712 108.248 135.92 110.626 135.92C113.48 135.92 113.638 136.237 111.736 138.615ZM216.677 160.808C218.738 163.344 218.579 163.503 216.202 161.442C214.616 160.332 213.348 159.064 213.348 158.747C213.348 157.479 214.616 158.272 216.677 160.808ZM138.684 165.088C138.209 165.563 136.941 164.295 135.831 162.393C133.77 159.064 133.929 159.064 136.624 161.601C138.209 163.186 139.16 164.771 138.684 165.088ZM165.158 169.527C165.792 170.636 165.792 171.112 164.999 170.478C164.365 169.844 162.621 170.161 161.195 171.27C158.975 173.014 158.975 172.856 160.877 170.319C163.414 167.149 163.731 166.99 165.158 169.527ZM170.072 176.501C169.596 176.977 168.17 177.136 167.06 176.66C165.792 176.184 166.267 175.709 168.011 175.709C169.755 175.55 170.706 176.026 170.072 176.501ZM178.474 178.562C178.474 179.355 177.364 180.464 175.937 180.94C173.718 181.733 173.559 181.574 175.303 179.513C177.522 176.818 178.474 176.501 178.474 178.562ZM172.925 183.476C173.401 184.269 173.084 185.062 172.291 185.062C171.34 185.062 170.547 184.269 170.547 183.476C170.547 182.525 170.864 181.891 171.181 181.891C171.657 181.891 172.45 182.525 172.925 183.476ZM184.973 187.915C183.863 188.232 182.119 187.757 181.327 186.964C180.059 185.696 180.693 185.537 183.388 186.171C185.448 186.805 186.241 187.439 184.973 187.915ZM191.948 189.817C192.423 190.61 192.106 191.402 191.314 191.402C190.363 191.402 189.57 190.61 189.57 189.817C189.57 188.866 189.887 188.232 190.204 188.232C190.68 188.232 191.472 188.866 191.948 189.817ZM226.823 194.414C227.298 195.207 226.822 196.475 225.871 197.109C224.762 197.743 224.445 197.585 225.079 196.475C225.554 195.683 225.079 194.414 224.128 194.097C222.701 193.463 222.542 193.146 223.969 193.146C224.92 192.988 226.189 193.622 226.823 194.414ZM211.763 201.865C211.763 202.182 210.653 202.499 209.385 202.499C208.117 202.499 207.007 201.865 207.007 200.914C207.007 200.121 208.117 199.804 209.385 200.28C210.653 200.914 211.763 201.548 211.763 201.865ZM451.131 207.889C451.131 208.206 450.021 208.998 448.594 209.474C447.326 209.949 446.692 209.791 447.168 208.84C448.119 207.255 451.131 206.621 451.131 207.889ZM460.8 211.535C462.861 214.071 462.703 214.23 460.325 212.169C458.74 211.059 457.472 209.791 457.472 209.474C457.472 208.206 458.74 208.998 460.8 211.535ZM398.343 212.961C397.867 213.437 396.441 213.596 395.331 213.12C394.063 212.644 394.538 212.169 396.282 212.169C398.026 212.01 398.977 212.486 398.343 212.961ZM407.537 216.449C407.22 216.766 405.476 216.607 403.416 215.973C400.879 215.181 400.562 214.547 401.989 213.595C403.733 212.486 408.805 215.181 407.537 216.449ZM413.878 213.595C414.354 214.388 414.195 215.181 413.244 215.181C412.451 215.181 411.183 214.388 410.708 213.595C410.232 212.644 410.39 212.01 411.342 212.01C412.134 212.01 413.403 212.644 413.878 213.595ZM424.182 213.913C424.182 212.961 425.292 212.01 426.718 212.01C428.938 212.01 428.938 212.169 426.718 214.547C424.023 217.083 421.012 216.29 421.012 213.12C421.012 212.01 421.646 212.169 422.597 213.595C423.548 215.181 424.182 215.339 424.182 213.913ZM294.828 217.717C295.304 218.827 295.145 219.778 294.511 219.778C291.658 219.302 290.39 220.095 292.292 221.363C293.877 222.314 293.877 222.948 291.975 224.533C290.231 225.96 289.439 225.96 288.487 224.533C287.853 223.424 288.012 223.107 289.121 223.741C290.231 224.375 290.548 222.948 289.914 219.144C289.121 214.547 289.439 213.754 291.499 214.547C292.767 215.022 294.353 216.449 294.828 217.717ZM330.654 220.095C330.654 223.107 330.971 223.265 333.349 221.363C335.727 219.302 335.727 219.461 333.825 222.473C332.451 224.692 330.76 224.798 328.752 222.79C327.167 221.205 326.216 219.144 326.691 218.351C328.435 215.656 330.654 216.607 330.654 220.095ZM343.336 218.351C343.336 219.144 342.226 219.461 340.958 218.985C339.69 218.351 338.58 217.717 338.58 217.4C338.58 217.083 339.69 216.766 340.958 216.766C342.226 216.766 343.336 217.4 343.336 218.351ZM392.478 218.351C392.478 219.144 391.685 219.936 390.734 219.936C389.941 219.936 389.624 219.144 390.1 218.351C390.575 217.4 391.368 216.766 391.844 216.766C392.161 216.766 392.478 217.4 392.478 218.351ZM400.087 219.144C399.77 220.095 398.66 220.412 397.392 220.253C396.282 219.936 395.807 220.412 396.441 221.363C396.916 222.473 396.124 223.107 394.221 223.107C392.319 223.107 390.892 223.899 390.892 225.009C390.892 225.96 390.417 226.277 389.783 225.643C389.149 225.009 390.734 222.79 393.27 220.729C398.026 216.924 401.196 216.132 400.087 219.144ZM423.548 218.51C424.816 220.729 421.804 223.741 419.585 222.473C417.841 221.363 418.951 216.766 421.012 216.766C421.804 216.766 422.914 217.558 423.548 218.51ZM309.254 222.79C308.778 223.265 307.51 222.79 306.4 221.68C304.974 220.095 305.132 219.936 307.351 220.887C308.937 221.363 309.729 222.314 309.254 222.79ZM314.802 221.522C314.802 222.314 314.485 223.107 314.168 223.107C313.692 223.107 312.9 222.314 312.424 221.522C311.949 220.57 312.266 219.936 313.058 219.936C314.009 219.936 314.802 220.57 314.802 221.522ZM368.858 221.046C367.114 221.839 367.114 222.156 368.858 223.424C370.76 224.692 370.76 224.851 368.858 224.375C365.37 223.424 364.895 219.936 368.224 220.095C370.126 220.095 370.443 220.412 368.858 221.046ZM318.765 223.107C317.338 225.326 320.192 225.009 322.57 222.631C324.155 221.046 324.313 221.205 323.521 223.424C322.094 226.911 318.448 228.179 317.497 225.485C317.021 224.375 317.021 222.948 317.497 222.473C319.082 220.887 319.875 221.363 318.765 223.107ZM386.929 224.692C387.405 225.485 387.088 226.277 386.295 226.277C385.344 226.277 384.552 225.485 384.552 224.692C384.552 223.741 384.868 223.107 385.186 223.107C385.661 223.107 386.454 223.741 386.929 224.692ZM336.995 226.277C336.995 227.07 336.678 227.862 336.361 227.862C335.885 227.862 335.093 227.07 334.617 226.277C334.142 225.326 334.459 224.692 335.251 224.692C336.202 224.692 336.995 225.326 336.995 226.277Z" fill="#171717"/>
<path fill-rule="evenodd" clip-rule="evenodd" d="M172.926 7.20029C170.389 8.46846 166.585 11.0048 164.682 12.7485C162.622 14.4923 161.036 15.4434 161.036 14.9679C161.036 14.3338 159.61 15.1264 157.866 16.5531C156.122 18.1383 154.696 20.5161 154.696 22.1014C154.696 23.8451 153.903 24.4791 152.318 24.0035C148.672 22.5768 146.294 24.7961 148.513 27.4909C150.098 29.3932 150.098 29.8689 148.196 29.3933C146.928 29.0763 145.501 28.2837 145.026 27.6496C143.44 25.4303 143.916 47.7818 145.501 50.9522C146.769 53.1715 146.611 53.647 145.184 52.6959C143.599 51.7448 143.44 52.5373 144.233 56.0248C144.867 58.5612 146.135 61.5732 147.086 62.5244C148.989 64.7437 152.159 65.3776 150.891 63.1583C150.415 62.5242 151.684 61.8902 153.586 62.0487C155.488 62.2072 157.549 61.7318 158.024 60.9391C158.659 60.1465 160.402 60.7805 161.988 62.3657C165.475 65.8532 173.718 66.4874 172.608 63.317C172.133 62.3658 172.925 61.4146 174.352 61.4146C175.779 61.4146 176.889 60.305 176.889 58.8783C176.889 57.6101 177.523 56.8175 178.315 57.2931C180.534 58.7198 190.997 51.4278 191.156 48.4159C191.156 46.6722 192.265 46.038 194.96 46.1966C198.606 46.6721 200.667 44.7698 201.618 40.0142C202.569 35.2585 204.313 31.2955 205.581 31.2955C206.374 31.2955 207.008 29.8688 207.008 28.1251C207.008 26.3813 206.057 24.9546 204.788 24.9546C203.362 24.9546 202.886 23.528 203.203 20.5161C203.52 18.1383 203.52 17.0285 203.045 17.9796C201.935 20.1989 195.911 18.9309 195.911 16.7116C195.911 15.7605 197.021 15.4434 198.289 15.919C199.557 16.5531 200.984 16.2359 201.459 15.4433C202.094 14.4922 201.301 13.8581 200.033 13.8581C198.606 13.8581 197.972 12.9071 198.447 11.7975C199.399 9.10258 188.936 4.50542 182.437 4.82246C179.9 4.98098 175.62 6.09064 172.926 7.20029Z" fill="#171717"/>
<path fill-rule="evenodd" clip-rule="evenodd" d="M314.803 51.9034C313.377 52.8546 313.377 53.3302 314.962 53.9643C316.23 54.4398 315.12 54.5983 312.426 54.2812C306.719 53.8057 293.561 62.0488 294.829 65.3778C295.305 66.6459 294.354 68.0726 292.769 68.5482C286.745 70.4504 283.099 86.4612 286.428 96.7651C288.013 102.155 294.037 113.727 296.732 116.739C297.049 117.056 299.744 117.531 302.756 117.69C306.56 117.848 307.987 117.373 307.353 115.788C306.877 114.678 307.353 113.727 308.462 113.727C309.572 113.727 309.096 112.459 307.353 110.874C305.767 109.447 305.451 108.813 306.877 109.764C308.145 110.556 310.206 112.3 311.316 113.568C312.742 115.471 313.218 115.471 313.218 113.727C313.218 112.459 314.328 112.934 316.23 115.154C318.766 118.007 319.4 118.165 320.193 116.105C320.668 114.678 320.51 114.044 319.717 114.519C318.925 114.995 317.815 114.837 317.34 114.044C317.023 113.41 318.132 112.617 320.034 112.617C321.937 112.459 324.315 111.19 325.266 109.764C326.217 108.496 329.387 106.593 332.082 105.642C334.935 104.691 336.838 103.423 336.362 103.106C335.094 101.838 339.216 98.1918 340.959 99.1429C341.911 99.6185 342.069 99.4599 341.435 98.8258C340.959 98.1917 341.435 95.814 342.703 93.4362C344.13 90.4243 344.288 88.6805 343.02 87.2538C341.752 85.6686 342.069 85.193 344.288 85.193C346.666 85.193 346.825 84.8759 345.081 83.7662C343.813 82.8151 343.654 82.0225 344.605 81.3884C346.349 80.4373 344.13 71.0845 341.752 69.3408C341.276 68.8652 339.691 66.0119 338.106 62.8415C336.679 59.8295 333.984 56.5007 331.924 55.391C325.9 52.5376 316.864 50.6352 314.803 51.9034Z" fill="#171717"/>
<path fill-rule="evenodd" clip-rule="evenodd" d="M154.062 66.0119C153.428 66.8045 154.537 67.1216 156.281 66.6461C159.927 65.6949 160.402 64.5852 157.232 64.5852C155.964 64.5852 154.537 65.2193 154.062 66.0119Z" fill="#171717"/>
<path fill-rule="evenodd" clip-rule="evenodd" d="M319.875 120.226C318.448 122.445 316.863 123.08 315.119 122.446C312.9 121.653 312.741 121.812 314.485 123.555C316.07 125.141 317.021 124.823 319.875 121.97C321.777 120.068 323.045 118.165 322.569 117.848C322.094 117.373 320.984 118.482 319.875 120.226Z" fill="#171717"/>
<path fill-rule="evenodd" clip-rule="evenodd" d="M300.694 120.226C300.536 123.238 305.45 125.14 308.462 123.238C310.998 121.653 307.669 119.434 304.499 120.702C303.389 121.019 301.962 120.702 301.487 119.592C301.17 118.482 300.694 118.799 300.694 120.226Z" fill="#171717"/>
<path d="M95.2499 139.09C96.5631 139.09 97.6277 138.381 97.6277 137.505C97.6277 136.63 96.5631 135.92 95.2499 135.92C93.9367 135.92 92.8721 136.63 92.8721 137.505C92.8721 138.381 93.9367 139.09 95.2499 139.09Z" fill="#171717"/>
<path fill-rule="evenodd" clip-rule="evenodd" d="M114.589 151.138C112.687 153.199 113.321 154.784 117.284 157.479C120.296 159.381 121.881 159.54 124.1 158.271C125.844 157.32 126.161 156.528 125.052 156.369C123.942 156.211 122.357 156.052 121.406 155.894C120.613 155.894 119.028 154.467 117.918 152.882C116.65 151.297 115.223 150.504 114.589 151.138Z" fill="#171717"/>
<path fill-rule="evenodd" clip-rule="evenodd" d="M215.726 202.182C214.986 204.19 215.567 205.564 217.469 206.304C219.213 206.938 219.847 206.62 219.213 205.035C218.579 203.45 219.213 203.133 221.591 203.767C223.81 204.243 224.603 203.926 224.127 202.499C223.176 199.646 216.835 199.329 215.726 202.182Z" fill="#171717"/>
<path fill-rule="evenodd" clip-rule="evenodd" d="M226.822 205.511C227.298 206.303 226.981 207.413 226.03 208.047C224.127 209.157 225.396 212.01 227.932 212.01C228.724 212.01 229.2 211.059 228.724 209.791C228.249 208.681 228.724 206.779 229.676 205.828C230.944 204.56 230.627 204.084 228.566 204.084C227.139 204.084 226.188 204.718 226.822 205.511Z" fill="#171717"/>
<path fill-rule="evenodd" clip-rule="evenodd" d="M360.456 230.557C361.565 231.033 362.992 230.874 363.468 230.399C364.102 229.923 363.151 229.448 361.407 229.606C359.663 229.606 359.188 230.082 360.456 230.557Z" fill="#171717"/>
</svg>
